<svg width="1826" height="418" viewBox="0 0 1826 418" fill="none" xmlns="http://www.w3.org/2000/svg">
<rect width="1826" height="418" fill="white"/>
<rect x="478.138" y="105.008" width="27.5404" height="214.815" fill="#1C1B22"/>
<rect x="396.894" y="292.283" width="27.5404" height="152.023" transform="rotate(90 396.894 292.283)" fill="#732BF1"/>
<rect x="396.894" y="200.849" width="27.5404" height="17.3504" transform="rotate(90 396.894 200.849)" fill="#732BF1"/>
<rect x="781.356" y="173.309" width="27.5404" height="146.515" fill="#1C1B22"/>
<rect x="1494.1" y="319.823" width="27.5404" height="146.515" transform="rotate(-180 1494.1 319.823)" fill="#1C1B22"/>
<rect x="1375.13" y="246.565" width="27.5404" height="73.2574" transform="rotate(-180 1375.13 246.565)" fill="#1C1B22"/>
<rect x="985.706" y="178.266" width="27.5404" height="68.3001" fill="#1C1B22"/>
<rect x="883.532" y="105.008" width="27.5404" height="141.833" fill="#1C1B22"/>
<rect width="27.5404" height="214.815" transform="matrix(-1 0 0 1 1654.39 105.008)" fill="#1C1B22"/>
<rect x="1145.99" y="105.008" width="27.5404" height="214.815" fill="#1C1B22"/>
<rect x="478.138" y="132.549" width="27.5404" height="69.6771" transform="rotate(-90 478.138 132.549)" fill="#1C1B22"/>
<rect x="854.614" y="200.849" width="27.5404" height="15.1472" transform="rotate(-90 854.614 200.849)" fill="#1C1B22"/>
<rect x="883.532" y="200.849" width="27.5404" height="88.4046" transform="rotate(-90 883.532 200.849)" fill="#1C1B22"/>
<rect x="478.138" y="251.523" width="27.5404" height="69.6771" transform="rotate(-90 478.138 251.523)" fill="#1C1B22"/>
<path d="M547.815 105.008C588.274 105.008 621.073 137.806 621.073 178.265C621.073 218.724 588.274 251.523 547.815 251.523V223.983C573.064 223.983 593.532 203.514 593.532 178.265C593.532 153.016 573.064 132.548 547.815 132.548V105.008Z" fill="#1C1B22"/>
<path d="M694.329 173.309C734.788 173.309 767.587 206.107 767.587 246.565C767.587 287.024 734.788 319.823 694.329 319.823V292.283C719.578 292.283 740.046 271.815 740.046 246.566C740.046 221.318 719.578 200.849 694.329 200.849V173.309Z" fill="#1C1B22"/>
<path d="M1260.56 173.309C1301.02 173.309 1333.82 206.107 1333.82 246.565C1333.82 287.024 1301.02 319.823 1260.56 319.823V292.283C1285.81 292.283 1306.28 271.815 1306.28 246.566C1306.28 221.318 1285.81 200.849 1260.56 200.849V173.309Z" fill="#1C1B22"/>
<path d="M1581.13 173.309C1621.59 173.309 1654.39 206.107 1654.39 246.565C1654.39 287.024 1621.59 319.823 1581.13 319.823V292.283C1606.38 292.283 1626.85 271.815 1626.85 246.566C1626.85 221.318 1606.38 200.849 1581.13 200.849V173.309Z" fill="#1C1B22"/>
<path d="M694.329 319.823C653.87 319.823 621.071 287.025 621.071 246.566C621.071 206.107 653.87 173.309 694.329 173.309L694.329 200.849C669.08 200.849 648.612 221.318 648.612 246.566C648.612 271.815 669.08 292.283 694.329 292.283L694.329 319.823Z" fill="#1C1B22"/>
<path d="M1260.56 319.823C1220.1 319.823 1187.3 287.025 1187.3 246.566C1187.3 206.107 1220.1 173.309 1260.56 173.309L1260.56 200.849C1235.31 200.849 1214.84 221.318 1214.84 246.566C1214.84 271.815 1235.31 292.283 1260.56 292.283L1260.56 319.823Z" fill="#1C1B22"/>
<path d="M1581.13 319.823C1540.67 319.823 1507.87 287.025 1507.87 246.566C1507.87 206.107 1540.67 173.309 1581.13 173.309L1581.13 200.849C1555.88 200.849 1535.41 221.318 1535.41 246.566C1535.41 271.815 1555.88 292.283 1581.13 292.283L1581.13 319.823Z" fill="#1C1B22"/>
<path d="M854.614 200.849C829.366 200.849 808.898 221.318 808.897 246.566H781.356C781.357 206.108 814.155 173.309 854.614 173.309V200.849Z" fill="#1C1B22"/>
<path d="M1420.84 292.283C1395.6 292.283 1375.13 271.815 1375.13 246.566L1347.59 246.566C1347.59 287.025 1380.39 319.823 1420.84 319.823L1420.84 292.283Z" fill="#1C1B22"/>
<path d="M1420.84 292.283C1446.09 292.283 1466.56 271.815 1466.56 246.566L1494.1 246.566C1494.1 287.025 1461.3 319.823 1420.84 319.823L1420.84 292.283Z" fill="#1C1B22"/>
<rect width="27.5404" height="15.1472" transform="matrix(-4.37114e-08 1 1 4.37114e-08 956.79 292.283)" fill="#1C1B22"/>
<path d="M956.79 292.283C931.541 292.283 911.073 271.815 911.073 246.566H883.532C883.533 287.025 916.331 319.823 956.79 319.823V292.283Z" fill="#1C1B22"/>
<path d="M1058.96 292.283C1033.72 292.283 1013.25 271.815 1013.25 246.566H985.706C985.707 287.025 1018.51 319.823 1058.96 319.823V292.283Z" fill="#1C1B22"/>
<path d="M1058.96 132.548C1033.72 132.548 1013.25 153.016 1013.25 178.265H985.706C985.707 137.807 1018.51 105.008 1058.96 105.008V132.548Z" fill="#1C1B22"/>
<path d="M1058.96 132.548C1082.54 132.548 1101.94 150.391 1104.41 173.308H1132.05C1129.51 135.161 1097.76 105.008 1058.96 105.008V132.548Z" fill="#1C1B22"/>
<path d="M1058.96 292.283C1084.21 292.283 1104.68 271.815 1104.68 246.566H1132.22C1132.22 287.025 1099.42 319.823 1058.96 319.823V292.283Z" fill="#1C1B22"/>
<path d="M396.894 200.849C429.747 200.849 456.381 227.482 456.381 260.336C456.381 293.19 429.747 319.823 396.894 319.823V292.283C414.537 292.283 428.841 277.98 428.841 260.336C428.841 242.968 414.98 228.837 397.718 228.399L396.894 228.39V200.849Z" fill="#732BF1"/>
<rect x="256.988" y="173.309" width="27.5404" height="97.7683" fill="#732BF1"/>
<path d="M244.871 173.309C259.484 173.309 273.098 177.588 284.528 184.961V223.807C276.638 210.087 261.833 200.849 244.871 200.849C219.622 200.849 199.153 221.318 199.153 246.566C199.154 271.815 219.622 292.283 244.871 292.283C245.796 292.283 246.714 292.251 247.625 292.197V292.283H302.113C288.689 309.07 268.036 319.823 244.871 319.823C204.412 319.823 171.613 287.024 171.613 246.565C171.614 206.107 204.412 173.309 244.871 173.309Z" fill="#732BF1"/>
<path d="M402.813 168.452C404.83 183.155 402.335 198.125 395.656 211.378C388.977 224.631 378.43 235.544 365.412 242.67C352.525 249.724 337.817 252.736 323.201 251.326C323.097 251.318 322.994 251.309 322.89 251.298C322.873 251.297 322.857 251.294 322.841 251.293C322.812 251.29 322.782 251.288 322.753 251.285L322.754 251.283C315.257 250.454 309.811 243.738 310.569 236.217C311.332 228.65 318.085 223.134 325.651 223.896C325.77 223.908 325.887 223.922 326.005 223.937C331.704 224.469 337.598 223.937 343.416 222.186C367.593 214.907 381.292 189.406 374.013 165.229C366.734 141.053 341.234 127.355 317.057 134.633C297.107 140.64 284.292 159.054 284.511 178.893L256.982 179.184C256.825 164.344 261.181 149.805 269.47 137.494C277.759 125.184 289.591 115.681 303.401 110.245C317.21 104.808 332.345 103.694 346.802 107.05C361.259 110.407 374.356 118.076 384.358 129.04C394.36 140.005 400.795 153.749 402.813 168.452Z" fill="#732BF1"/>
</svg>
